<svg xmlns="http://www.w3.org/2000/svg" xmlns:xlink="http://www.w3.org/1999/xlink" style="margin:auto;background:transparent;display:block;z-index:1;position:relative" width="2560" height="1440" preserveAspectRatio="xMidYMid" viewBox="0 0 2560 1440">
<g transform="translate(1280,720) scale(1,1) translate(-1280,-720)"><path id="path0" d="M 1017.1292709123084 533.4011967328672
c 0 28.445183047303395 -6.959991596680617 8.170424917842464 -15.130416514523082 8.170424917842464
S 986.8684378832622 561.8463797801707 986.8684378832622 533.4011967328672
s 6.959991596680617 -8.170424917842464 15.130416514523082 -8.170424917842464
S 1017.1292709123084 504.95601368556385 1017.1292709123084 533.4011967328672
z" fill="none" stroke="none"></path>
<circle cx="0" cy="0" r="8.704620898812573" fill="#565656">
  <animateMotion begin="-15.258274014627645s" dur="20s" repeatCount="indefinite">
    <mpath xlink:href="#path0"></mpath>
  </animateMotion>
</circle><path id="path1" d="M 1337.634407808807 13.042251513508223
c 0 19.64335472676934 -4.806352752294625 5.6422401874762995 -10.448592939770924 5.6422401874762995
S 1316.7372219292654 32.685606240277565 1316.7372219292654 13.042251513508223
s 4.806352752294625 -5.6422401874762995 10.448592939770924 -5.6422401874762995
S 1337.634407808807 -6.601103213261116 1337.634407808807 13.042251513508223
z" fill="none" stroke="none"></path>
<circle cx="0" cy="0" r="11.421611169380819" fill="#00acae">
  <animateMotion begin="-19.491778593175827s" dur="20s" repeatCount="indefinite">
    <mpath xlink:href="#path1"></mpath>
  </animateMotion>
</circle><path id="path2" d="M 632.5680503414355 1156.0688032191892
c 0 29.785102943012124 -7.287844337119987 8.555295526184334 -15.843139863304321 8.555295526184334
S 600.8817706148268 1185.8539061622014 600.8817706148268 1156.0688032191892
s 7.287844337119987 -8.555295526184334 15.843139863304321 -8.555295526184334
S 632.5680503414355 1126.2837002761771 632.5680503414355 1156.0688032191892
z" fill="none" stroke="none"></path>
<circle cx="0" cy="0" r="9.919545259438257" fill="#565656">
  <animateMotion begin="-5.890180401919034s" dur="20s" repeatCount="indefinite">
    <mpath xlink:href="#path2"></mpath>
  </animateMotion>
</circle><path id="path3" d="M 243.719767292641 535.0545674721111
c 0 37.282597297257546 -9.122337636563016 10.708831138573975 -19.83116877513699 10.708831138573975
S 204.057429742367 572.3371647693687 204.057429742367 535.0545674721111
s 9.122337636563016 -10.708831138573975 19.83116877513699 -10.708831138573975
S 243.719767292641 497.77197017485355 243.719767292641 535.0545674721111
z" fill="none" stroke="none"></path>
<circle cx="0" cy="0" r="13.010816780723916" fill="#565656">
  <animateMotion begin="-18.907791914417523s" dur="20s" repeatCount="indefinite">
    <mpath xlink:href="#path3"></mpath>
  </animateMotion>
</circle><path id="path4" d="M 1167.5758152479054 1317.076455398946
c 0 32.98480040178994 -8.070749034480516 9.474357562216259 -17.545106596696776 9.474357562216259
S 1132.485602054512 1350.061255800736 1132.485602054512 1317.076455398946
s 8.070749034480516 -9.474357562216259 17.545106596696776 -9.474357562216259
S 1167.5758152479054 1284.0916549971562 1167.5758152479054 1317.076455398946
z" fill="none" stroke="none"></path>
<circle cx="0" cy="0" r="7.796692297419735" fill="#00acae">
  <animateMotion begin="-1.2991155033455248s" dur="20s" repeatCount="indefinite">
    <mpath xlink:href="#path4"></mpath>
  </animateMotion>
</circle><path id="path5" d="M 2304.634848593815 915.9986031092004
c 0 23.953568500189075 -5.860979526642007 6.8802803138840956 -12.741259840526101 6.8802803138840956
S 2279.1523289127626 939.9521716093894 2279.1523289127626 915.9986031092004
s 5.860979526642007 -6.8802803138840956 12.741259840526101 -6.8802803138840956
S 2304.634848593815 892.0450346090114 2304.634848593815 915.9986031092004
z" fill="none" stroke="none"></path>
<circle cx="0" cy="0" r="10.379504596223498" fill="#f41c1c">
  <animateMotion begin="-14.884166678916086s" dur="20s" repeatCount="indefinite">
    <mpath xlink:href="#path5"></mpath>
  </animateMotion>
</circle><path id="path6" d="M 39.51255144243069 1095.5178668927542
c 0 28.324343766278602 -6.930424538557529 8.135715762654492 -15.066140301212021 8.135715762654492
S 9.38027084000665 1123.8422106590328 9.38027084000665 1095.5178668927542
s 6.930424538557529 -8.135715762654492 15.066140301212021 -8.135715762654492
S 39.51255144243069 1067.1935231264756 39.51255144243069 1095.5178668927542
z" fill="none" stroke="none"></path>
<circle cx="0" cy="0" r="7.574710299759976" fill="#f41c1c">
  <animateMotion begin="-13.081446641177275s" dur="20s" repeatCount="indefinite">
    <mpath xlink:href="#path6"></mpath>
  </animateMotion>
</circle><path id="path7" d="M 2460.518187893236 27.485738309588605
c 0 34.544502121017786 -8.452378178546903 9.922356992207236 -18.37473517075414 9.922356992207236
S 2423.768717551727 62.03024043060639 2423.768717551727 27.485738309588605
s 8.452378178546903 -9.922356992207236 18.37473517075414 -9.922356992207236
S 2460.518187893236 -7.058763811429181 2460.518187893236 27.485738309588605
z" fill="none" stroke="none"></path>
<circle cx="0" cy="0" r="14.102593313514154" fill="#00acae">
  <animateMotion begin="-1.8433949394641314s" dur="20s" repeatCount="indefinite">
    <mpath xlink:href="#path7"></mpath>
  </animateMotion>
</circle><path id="path8" d="M 1519.824025445313 1168.801142474726
c 0 31.47681394709078 -7.701773625351998 9.041212516717565 -16.74298614206956 9.041212516717565
S 1486.3380531611738 1200.2779564218167 1486.3380531611738 1168.801142474726
s 7.701773625351998 -9.041212516717565 16.74298614206956 -9.041212516717565
S 1519.824025445313 1137.3243285276353 1519.824025445313 1168.801142474726
z" fill="none" stroke="none"></path>
<circle cx="0" cy="0" r="10.912890011526473" fill="#d0c74b">
  <animateMotion begin="-5.366909539383684s" dur="20s" repeatCount="indefinite">
    <mpath xlink:href="#path8"></mpath>
  </animateMotion>
</circle><path id="path9" d="M 70.5820913065779 1311.767879935744
c 0 36.287852616878084 -8.878942661576552 10.423106602720301 -19.30204926429685 10.423106602720301
S 31.977992777984188 1348.0557325526222 31.977992777984188 1311.767879935744
s 8.878942661576552 -10.423106602720301 19.30204926429685 -10.423106602720301
S 70.5820913065779 1275.480027318866 70.5820913065779 1311.767879935744
z" fill="none" stroke="none"></path>
<circle cx="0" cy="0" r="14.226919218206309" fill="#f41c1c">
  <animateMotion begin="-1.147885083802156s" dur="20s" repeatCount="indefinite">
    <mpath xlink:href="#path9"></mpath>
  </animateMotion>
</circle><path id="path10" d="M 2369.353003774157 90.96481131243691
c 0 31.926194909798266 -7.811728541759149 9.170290027282482 -16.98201856904163 9.170290027282482
S 2335.388966636074 122.89100622223518 2335.388966636074 90.96481131243691
s 7.811728541759149 -9.170290027282482 16.98201856904163 -9.170290027282482
S 2369.353003774157 59.03861640263864 2369.353003774157 90.96481131243691
z" fill="none" stroke="none"></path>
<circle cx="0" cy="0" r="9.371138704243831" fill="#00acae">
  <animateMotion begin="-16.30717324145294s" dur="20s" repeatCount="indefinite">
    <mpath xlink:href="#path10"></mpath>
  </animateMotion>
</circle><path id="path11" d="M 586.1363565200639 1205.6543919764547
c 0 33.827557312074156 -8.276955512528783 9.716426036446833 -17.993381548975616 9.716426036446833
S 550.1495934221126 1239.4819492885288 550.1495934221126 1205.6543919764547
s 8.276955512528783 -9.716426036446833 17.993381548975616 -9.716426036446833
S 586.1363565200639 1171.8268346643806 586.1363565200639 1205.6543919764547
z" fill="none" stroke="none"></path>
<circle cx="0" cy="0" r="13.03760488698912" fill="#565656">
  <animateMotion begin="-11.700533574862666s" dur="20s" repeatCount="indefinite">
    <mpath xlink:href="#path11"></mpath>
  </animateMotion>
</circle><path id="path12" d="M 2005.1518393908368 635.5583235795992
c 0 26.151440610381215 -6.398756745093276 7.511584005109499 -13.910340750202774 7.511584005109499
S 1977.3311578904313 661.7097641899804 1977.3311578904313 635.5583235795992
s 6.398756745093276 -7.511584005109499 13.910340750202774 -7.511584005109499
S 2005.1518393908368 609.406882969218 2005.1518393908368 635.5583235795992
z" fill="none" stroke="none"></path>
<circle cx="0" cy="0" r="11.585029752608792" fill="#d0c74b">
  <animateMotion begin="-14.158804437748081s" dur="20s" repeatCount="indefinite">
    <mpath xlink:href="#path12"></mpath>
  </animateMotion>
</circle><path id="path13" d="M 970.94624085576 180.35267867577912
c 0 36.54201635819164 -8.941131662110719 10.496111081608237 -19.437242743718958 10.496111081608237
S 932.0717553683222 216.89469503397075 932.0717553683222 180.35267867577912
s 8.941131662110719 -10.496111081608237 19.437242743718958 -10.496111081608237
S 970.94624085576 143.8106623175875 970.94624085576 180.35267867577912
z" fill="none" stroke="none"></path>
<circle cx="0" cy="0" r="9.852154714149492" fill="#f41c1c">
  <animateMotion begin="-10.329067152064981s" dur="20s" repeatCount="indefinite">
    <mpath xlink:href="#path13"></mpath>
  </animateMotion>
</circle><path id="path14" d="M 266.741979375328 1406.242968223978
c 0 33.739740493334324 -8.2554684185818 9.69120205659603 -17.946670475177832 9.69120205659603
S 230.84863842497234 1439.9827087173123 230.84863842497234 1406.242968223978
s 8.2554684185818 -9.69120205659603 17.946670475177832 -9.69120205659603
S 266.741979375328 1372.5032277306439 266.741979375328 1406.242968223978
z" fill="none" stroke="none"></path>
<circle cx="0" cy="0" r="13.871893334407359" fill="#d0c74b">
  <animateMotion begin="-18.937936068885787s" dur="20s" repeatCount="indefinite">
    <mpath xlink:href="#path14"></mpath>
  </animateMotion>
</circle><path id="path15" d="M 763.8956046012986 740.9711547892997
c 0 21.215489473391184 -5.191024020085076 6.09381080618683 -11.284834826271906 6.09381080618683
S 741.3259349487548 762.1866442626908 741.3259349487548 740.9711547892997
s 5.191024020085076 -6.09381080618683 11.284834826271906 -6.09381080618683
S 763.8956046012986 719.7556653159086 763.8956046012986 740.9711547892997
z" fill="none" stroke="none"></path>
<circle cx="0" cy="0" r="9.099405866860717" fill="#f41c1c">
  <animateMotion begin="-2.7479169707186113s" dur="20s" repeatCount="indefinite">
    <mpath xlink:href="#path15"></mpath>
  </animateMotion>
</circle><path id="path16" d="M 72.88983774142156 1026.2449637272396
c 0 33.200886663695684 -8.123621204946815 9.536424892763653 -17.66004609771047 9.536424892763653
S 37.569745546000625 1059.4458503909352 37.569745546000625 1026.2449637272396
s 8.123621204946815 -9.536424892763653 17.66004609771047 -9.536424892763653
S 72.88983774142156 993.0440770635439 72.88983774142156 1026.2449637272396
z" fill="none" stroke="none"></path>
<circle cx="0" cy="0" r="12.820458424476767" fill="#565656">
  <animateMotion begin="-11.655209418714044s" dur="20s" repeatCount="indefinite">
    <mpath xlink:href="#path16"></mpath>
  </animateMotion>
</circle><path id="path17" d="M 1208.3604557237006 681.1572890899414
c 0 35.70547283375933 -8.736445480600686 10.25582730331385 -18.992272783914537 10.25582730331385
S 1170.3759101558715 716.8627619237008 1170.3759101558715 681.1572890899414
s 8.736445480600686 -10.25582730331385 18.992272783914537 -10.25582730331385
S 1208.3604557237006 645.451816256182 1208.3604557237006 681.1572890899414
z" fill="none" stroke="none"></path>
<circle cx="0" cy="0" r="8.311726367308939" fill="#f41c1c">
  <animateMotion begin="-5.475083086347752s" dur="20s" repeatCount="indefinite">
    <mpath xlink:href="#path17"></mpath>
  </animateMotion>
</circle><path id="path18" d="M 718.399150321272 91.49044319794685
c 0 35.39280960214732 -8.65994277499349 10.166019779340186 -18.825962554333678 10.166019779340186
S 680.7472252126046 126.88325280009417 680.7472252126046 91.49044319794685
s 8.65994277499349 -10.166019779340186 18.825962554333678 -10.166019779340186
S 718.399150321272 56.09763359579953 718.399150321272 91.49044319794685
z" fill="none" stroke="none"></path>
<circle cx="0" cy="0" r="9.431675414656306" fill="#d0c74b">
  <animateMotion begin="-12.115377936184446s" dur="20s" repeatCount="indefinite">
    <mpath xlink:href="#path18"></mpath>
  </animateMotion>
</circle><path id="path19" d="M 2039.5406641982552 41.099664992994455
c 0 33.13322533299866 -8.107065772967758 9.516990255223021 -17.62405602819078 9.516990255223021
S 2004.2925521418736 74.23289032599311 2004.2925521418736 41.099664992994455
s 8.107065772967758 -9.516990255223021 17.62405602819078 -9.516990255223021
S 2039.5406641982552 7.9664396599957925 2039.5406641982552 41.099664992994455
z" fill="none" stroke="none"></path>
<circle cx="0" cy="0" r="9.084237922438929" fill="#f41c1c">
  <animateMotion begin="-19.463382273480093s" dur="20s" repeatCount="indefinite">
    <mpath xlink:href="#path19"></mpath>
  </animateMotion>
</circle><path id="path20" d="M 960.1980444880525 503.99432081259687
c 0 35.47130629689955 -8.679149413071165 10.188566702300934 -18.8677161153721 10.188566702300934
S 922.4626122573083 539.4656271094964 922.4626122573083 503.99432081259687
s 8.679149413071165 -10.188566702300934 18.8677161153721 -10.188566702300934
S 960.1980444880525 468.5230145156973 960.1980444880525 503.99432081259687
z" fill="none" stroke="none"></path>
<circle cx="0" cy="0" r="12.465798991085482" fill="#00acae">
  <animateMotion begin="-9.297767748431527s" dur="20s" repeatCount="indefinite">
    <mpath xlink:href="#path20"></mpath>
  </animateMotion>
</circle><path id="path21" d="M 1864.7076023562706 911.9710429048005
c 0 37.498538999255146 -9.17517443598796 10.770856946594563 -19.94603138258252 10.770856946594563
S 1824.8155395911056 949.4695819040556 1824.8155395911056 911.9710429048005
s 9.17517443598796 -10.770856946594563 19.94603138258252 -10.770856946594563
S 1864.7076023562706 874.4725039055453 1864.7076023562706 911.9710429048005
z" fill="none" stroke="none"></path>
<circle cx="0" cy="0" r="12.376971919160704" fill="#565656">
  <animateMotion begin="-0.44062818971227546s" dur="20s" repeatCount="indefinite">
    <mpath xlink:href="#path21"></mpath>
  </animateMotion>
</circle><path id="path22" d="M 316.74884988612956 821.1915039278904
c 0 31.31069659751079 -7.661127890880299 8.993497958859482 -16.65462584973978 8.993497958859482
S 283.43959818665 852.5022005254011 283.43959818665 821.1915039278904
s 7.661127890880299 -8.993497958859482 16.65462584973978 -8.993497958859482
S 316.74884988612956 789.8808073303796 316.74884988612956 821.1915039278904
z" fill="none" stroke="none"></path>
<circle cx="0" cy="0" r="13.651885105384286" fill="#d0c74b">
  <animateMotion begin="-1.6859855800167045s" dur="20s" repeatCount="indefinite">
    <mpath xlink:href="#path22"></mpath>
  </animateMotion>
</circle><path id="path23" d="M 980.3564055821955 11.86755534415817
c 0 24.121240898387033 -5.902005751732997 6.928441534643084 -12.830447286376081 6.928441534643084
S 954.6955110094434 35.988796242545206 954.6955110094434 11.86755534415817
s 5.902005751732997 -6.928441534643084 12.830447286376081 -6.928441534643084
S 980.3564055821955 -12.253685554228863 980.3564055821955 11.86755534415817
z" fill="none" stroke="none"></path>
<circle cx="0" cy="0" r="8.896131061006852" fill="#f41c1c">
  <animateMotion begin="-11.268064828882514s" dur="20s" repeatCount="indefinite">
    <mpath xlink:href="#path23"></mpath>
  </animateMotion>
</circle><path id="path24" d="M 1627.2425600497363 235.3043658491936
c 0 37.380067906631105 -9.146186828218248 10.736828015734467 -19.883014843952715 10.736828015734467
S 1587.476530361831 272.6844337558247 1587.476530361831 235.3043658491936
s 9.146186828218248 -10.736828015734467 19.883014843952715 -10.736828015734467
S 1627.2425600497363 197.9242979425625 1627.2425600497363 235.3043658491936
z" fill="none" stroke="none"></path>
<circle cx="0" cy="0" r="14.3454380357173" fill="#d0c74b">
  <animateMotion begin="-3.0068318494677815s" dur="20s" repeatCount="indefinite">
    <mpath xlink:href="#path24"></mpath>
  </animateMotion>
</circle><path id="path25" d="M 2267.392746415292 1019.2689419783644
c 0 28.535676296823215 -6.982133561988658 8.196417659725817 -15.178551221714475 8.196417659725817
S 2237.0356439718635 1047.8046182751875 2237.0356439718635 1019.2689419783644
s 6.982133561988658 -8.196417659725817 15.178551221714475 -8.196417659725817
S 2267.392746415292 990.7332656815412 2267.392746415292 1019.2689419783644
z" fill="none" stroke="none"></path>
<circle cx="0" cy="0" r="7.41187608197262" fill="#d0c74b">
  <animateMotion begin="-9.781277563724714s" dur="20s" repeatCount="indefinite">
    <mpath xlink:href="#path25"></mpath>
  </animateMotion>
</circle><path id="path26" d="M 1121.2112444087657 31.472116626231887
c 0 30.98625025595995 -7.581742083905093 8.900305924584242 -16.482048008489333 8.900305924584242
S 1088.247148391787 62.45836688219184 1088.247148391787 31.472116626231887
s 7.581742083905093 -8.900305924584242 16.482048008489333 -8.900305924584242
S 1121.2112444087657 0.485866370271939 1121.2112444087657 31.472116626231887
z" fill="none" stroke="none"></path>
<circle cx="0" cy="0" r="8.97134561166613" fill="#d0c74b">
  <animateMotion begin="-1.922482129237264s" dur="20s" repeatCount="indefinite">
    <mpath xlink:href="#path26"></mpath>
  </animateMotion>
</circle><path id="path27" d="M 268.8357316632852 302.8188226075258
c 0 36.89914036775324 -9.028513068705578 10.59868925456742 -19.627202323273 10.59868925456742
S 229.58132701673918 339.7179629752791 229.58132701673918 302.8188226075258
s 9.028513068705578 -10.59868925456742 19.627202323273 -10.59868925456742
S 268.8357316632852 265.91968223977256 268.8357316632852 302.8188226075258
z" fill="none" stroke="none"></path>
<circle cx="0" cy="0" r="11.381544024909635" fill="#565656">
  <animateMotion begin="-7.167736225727657s" dur="20s" repeatCount="indefinite">
    <mpath xlink:href="#path27"></mpath>
  </animateMotion>
</circle><path id="path28" d="M 774.7070367488556 802.9357799424381
c 0 30.422689267377937 -7.4438495015924735 8.738432023608556 -16.18228152520103 8.738432023608556
S 742.3424736984535 833.358469209816 742.3424736984535 802.9357799424381
s 7.4438495015924735 -8.738432023608556 16.18228152520103 -8.738432023608556
S 774.7070367488556 772.5130906750602 774.7070367488556 802.9357799424381
z" fill="none" stroke="none"></path>
<circle cx="0" cy="0" r="10.603835718562458" fill="#f41c1c">
  <animateMotion begin="-14.855123718497637s" dur="20s" repeatCount="indefinite">
    <mpath xlink:href="#path28"></mpath>
  </animateMotion>
</circle><path id="path29" d="M 1081.613838317357 530.5496676638519
c 0 26.08630815940399 -6.382820081556295 7.492875747913913 -13.875695829470207 7.492875747913913
S 1053.8624466584165 556.6359758232559 1053.8624466584165 530.5496676638519
s 6.382820081556295 -7.492875747913913 13.875695829470207 -7.492875747913913
S 1081.613838317357 504.4633595044479 1081.613838317357 530.5496676638519
z" fill="none" stroke="none"></path>
<circle cx="0" cy="0" r="12.930674444174466" fill="#d0c74b">
  <animateMotion begin="-8.663619401575705s" dur="20s" repeatCount="indefinite">
    <mpath xlink:href="#path29"></mpath>
  </animateMotion>
</circle><path id="path30" d="M 181.54160912171105 670.2680565603698
c 0 33.06001011908772 -8.089151412117207 9.495960353354983 -17.585111765472192 9.495960353354983
S 146.37138559076666 703.3280666794575 146.37138559076666 670.2680565603698
s 8.089151412117207 -9.495960353354983 17.585111765472192 -9.495960353354983
S 181.54160912171105 637.2080464412821 181.54160912171105 670.2680565603698
z" fill="none" stroke="none"></path>
<circle cx="0" cy="0" r="12.161611948237129" fill="#d0c74b">
  <animateMotion begin="-7.563340893149495s" dur="20s" repeatCount="indefinite">
    <mpath xlink:href="#path30"></mpath>
  </animateMotion>
</circle><path id="path31" d="M 1876.071701564527 424.2297321773563
c 0 33.381571799252285 -8.167831397689387 9.588323814678848 -17.756155212368235 9.588323814678848
S 1840.5593911397907 457.6113039766086 1840.5593911397907 424.2297321773563
s 8.167831397689387 -9.588323814678848 17.756155212368235 -9.588323814678848
S 1876.071701564527 390.848160378104 1876.071701564527 424.2297321773563
z" fill="none" stroke="none"></path>
<circle cx="0" cy="0" r="8.65370131817578" fill="#565656">
  <animateMotion begin="-8.153487673405134s" dur="20s" repeatCount="indefinite">
    <mpath xlink:href="#path31"></mpath>
  </animateMotion>
</circle><path id="path32" d="M 243.7496542146378 689.2572928296879
c 0 27.198856776523265 -6.655039424042926 7.812437584746044 -14.467477008788968 7.812437584746044
S 214.81470019705986 716.4561496062112 214.81470019705986 689.2572928296879
s 6.655039424042926 -7.812437584746044 14.467477008788968 -7.812437584746044
S 243.7496542146378 662.0584360531647 243.7496542146378 689.2572928296879
z" fill="none" stroke="none"></path>
<circle cx="0" cy="0" r="13.438831057217358" fill="#00acae">
  <animateMotion begin="-17.357901796351637s" dur="20s" repeatCount="indefinite">
    <mpath xlink:href="#path32"></mpath>
  </animateMotion>
</circle><path id="path33" d="M 1886.2839351277069 922.0703126257262
c 0 20.01776612678399 -4.89796405229821 5.749783887480508 -10.647747939778718 5.749783887480508
S 1864.9884392481492 942.0880787525101 1864.9884392481492 922.0703126257262
s 4.89796405229821 -5.749783887480508 10.647747939778718 -5.749783887480508
S 1886.2839351277069 902.0525464989422 1886.2839351277069 922.0703126257262
z" fill="none" stroke="none"></path>
<circle cx="0" cy="0" r="11.062597920973063" fill="#f41c1c">
  <animateMotion begin="-18.239307264749456s" dur="20s" repeatCount="indefinite">
    <mpath xlink:href="#path33"></mpath>
  </animateMotion>
</circle><path id="path34" d="M 1778.297430362535 322.5518380193411
c 0 20.025000545188124 -4.899734175950285 5.751861858724248 -10.651596034674533 5.751861858724248
S 1756.9942382931856 342.5768385645292 1756.9942382931856 322.5518380193411
s 4.899734175950285 -5.751861858724248 10.651596034674533 -5.751861858724248
S 1778.297430362535 302.526837474153 1778.297430362535 322.5518380193411
z" fill="none" stroke="none"></path>
<circle cx="0" cy="0" r="10.970180199907475" fill="#565656">
  <animateMotion begin="-9.036533783469043s" dur="20s" repeatCount="indefinite">
    <mpath xlink:href="#path34"></mpath>
  </animateMotion>
</circle><path id="path35" d="M 844.2919535574365 1373.8850475485679
c 0 22.16123693538594 -5.422430313977411 6.365461672930005 -11.787891986907415 6.365461672930005
S 820.7161695836216 1396.0462844839537 820.7161695836216 1373.8850475485679
s 5.422430313977411 -6.365461672930005 11.787891986907415 -6.365461672930005
S 844.2919535574365 1351.723810613182 844.2919535574365 1373.8850475485679
z" fill="none" stroke="none"></path>
<circle cx="0" cy="0" r="14.17245464336253" fill="#00acae">
  <animateMotion begin="-8.237080101546962s" dur="20s" repeatCount="indefinite">
    <mpath xlink:href="#path35"></mpath>
  </animateMotion>
</circle><path id="path36" d="M 445.4472874116414 1260.779032627609
c 0 37.314585169358374 -9.130164456332368 10.718019144390173 -19.84818360072254 10.718019144390173
S 405.7509202101963 1298.0936177969675 405.7509202101963 1260.779032627609
s 9.130164456332368 -10.718019144390173 19.84818360072254 -10.718019144390173
S 445.4472874116414 1223.4644474582506 445.4472874116414 1260.779032627609
z" fill="none" stroke="none"></path>
<circle cx="0" cy="0" r="10.52402673610289" fill="#565656">
  <animateMotion begin="-19.83748009084904s" dur="20s" repeatCount="indefinite">
    <mpath xlink:href="#path36"></mpath>
  </animateMotion>
</circle></g>
</svg>